ply
format ascii 1.0
comment Made by Golan Levin et al.
comment This file is the bind pose for a generic hand.
element vertex 151
property float x
property float y
element face 205
property list uchar int vertex_index
end_header
197.000 317.000
186.000 301.000
178.000 285.000
167.000 267.000
156.000 251.000
146.000 234.000
145.000 225.000
149.000 218.000
158.000 216.000
166.000 220.000
178.000 236.000
189.000 253.000
199.000 268.000
211.000 283.000
220.000 296.000
232.000 288.000
221.000 264.000
214.000 241.000
207.000 219.000
198.000 192.000
190.000 165.000
190.000 154.000
198.000 145.000
210.000 146.000
219.000 155.000
228.000 180.000
238.000 206.000
246.000 230.000
256.000 252.000
262.000 273.000
276.000 271.000
275.000 240.000
274.000 211.000
274.000 180.000
275.000 150.000
274.000 118.000
279.000 107.000
290.000 102.000
301.000 106.000
307.000 117.000
309.000 150.000
311.000 181.000
312.000 211.000
312.000 241.000
312.000 268.000
326.000 271.000
334.000 249.000
340.000 225.000
347.000 200.000
355.000 177.000
361.000 152.000
369.000 142.000
380.000 140.000
391.000 147.000
391.000 160.000
385.000 187.000
379.000 212.000
372.000 238.000
367.000 262.000
361.000 295.000
384.000 360.000
398.000 357.000
412.000 345.000
425.000 334.000
443.000 320.000
467.000 315.000
480.000 320.000
486.000 332.000
478.000 340.000
468.000 345.000
450.000 361.000
437.000 373.000
428.000 384.000
418.000 398.000
409.000 410.000
208.000 306.000
199.000 293.000
189.000 278.000
178.000 262.000
167.000 244.000
157.000 229.000
247.000 282.000
237.000 257.000
230.000 236.000
222.000 212.000
213.000 186.000
204.000 161.000
294.000 269.000
293.000 239.000
292.000 211.000
292.000 181.000
292.000 150.000
291.000 119.000
343.000 282.000
351.000 256.000
357.000 233.000
364.000 207.000
370.000 181.000
377.000 156.000
395.000 384.000
406.000 378.000
419.000 364.000
431.000 354.000
445.000 343.000
467.000 330.000
237.000 478.000
236.000 667.000
292.000 666.000
352.000 666.000
349.000 481.000
293.000 478.000
238.000 572.000
291.000 573.000
347.000 574.000
222.000 324.000
252.000 306.000
294.000 297.000
335.000 307.000
228.000 296.000
270.000 279.000
318.000 275.000
220.000 415.000
353.000 412.000
209.000 342.000
358.000 338.000
241.000 335.000
277.000 329.000
312.000 327.000
287.000 411.000
303.000 410.000
268.000 412.000
370.000 338.000
368.000 366.000
380.000 396.000
366.000 406.000
395.000 423.000
379.000 442.000
364.000 462.000
240.000 512.000
292.000 511.000
344.000 512.000
214.000 379.000
253.000 373.000
282.000 369.000
307.000 369.000
355.000 369.000
231.000 450.000
281.000 446.000
289.000 445.000
297.000 446.000
351.000 448.000
3 60 61 99
3 61 100 99
3 100 74 99
3 100 73 74
3 61 62 100
3 62 101 100
3 101 73 100
3 101 72 73
3 62 63 101
3 63 102 101
3 102 72 101
3 102 71 72
3 63 64 102
3 64 103 102
3 103 71 102
3 103 70 71
3 64 65 103
3 65 104 103
3 104 70 103
3 69 70 104
3 65 66 104
3 66 67 104
3 67 68 104
3 68 69 104
3 75 0 1
3 76 75 1
3 76 14 75
3 13 14 76
3 2 76 1
3 77 76 2
3 77 13 76
3 77 12 13
3 2 3 77
3 3 78 77
3 78 12 77
3 78 11 12
3 4 78 3
3 4 79 78
3 79 11 78
3 79 10 11
3 5 79 4
3 5 80 79
3 80 10 79
3 80 9 10
3 5 6 80
3 6 7 80
3 7 8 80
3 8 9 80
3 16 81 15
3 16 82 81
3 82 29 81
3 82 28 29
3 17 82 16
3 17 83 82
3 83 28 82
3 83 27 28
3 18 83 17
3 18 84 83
3 84 27 83
3 84 26 27
3 19 84 18
3 19 85 84
3 85 26 84
3 85 25 26
3 20 85 19
3 20 86 85
3 86 25 85
3 86 24 25
3 21 86 20
3 21 22 86
3 22 23 86
3 23 24 86
3 31 87 30
3 31 88 87
3 88 44 87
3 88 43 44
3 32 88 31
3 32 89 88
3 89 43 88
3 89 42 43
3 33 89 32
3 33 90 89
3 90 42 89
3 90 41 42
3 34 90 33
3 34 91 90
3 91 41 90
3 91 40 41
3 35 91 34
3 35 92 91
3 92 40 91
3 92 39 40
3 36 92 35
3 36 37 92
3 37 38 92
3 38 39 92
3 46 93 45
3 46 94 93
3 94 59 93
3 94 58 59
3 47 94 46
3 47 95 94
3 95 58 94
3 95 57 58
3 48 95 47
3 48 96 95
3 96 57 95
3 96 56 57
3 49 96 48
3 49 97 96
3 97 56 96
3 97 55 56
3 50 97 49
3 50 98 97
3 98 55 97
3 54 55 98
3 51 98 50
3 51 52 98
3 52 53 98
3 53 54 98
3 0 75 114
3 75 14 114
3 14 118 114
3 118 15 115
3 15 81 115
3 81 29 115
3 29 119 115
3 119 30 116
3 30 87 116
3 87 44 116
3 44 120 116
3 120 45 117
3 45 93 117
3 93 59 117
3 111 107 106
3 111 112 107
3 112 108 107
3 112 113 108
3 111 138 112
3 138 139 112
3 139 113 112
3 139 140 113
3 105 139 138
3 105 110 139
3 110 140 139
3 110 109 140
3 146 110 105
3 146 147 110
3 147 148 110
3 148 149 110
3 149 109 110
3 149 150 109
3 121 147 146
3 121 130 147
3 130 148 147
3 130 128 148
3 128 149 148
3 128 129 149
3 129 150 149
3 129 122 150
3 141 130 121
3 141 142 130
3 142 128 130
3 142 143 128
3 143 129 128
3 143 144 129
3 144 122 129
3 144 145 122
3 123 142 141
3 123 125 142
3 125 143 142
3 125 126 143
3 126 144 143
3 126 127 144
3 127 145 144
3 127 124 145
3 0 114 123
3 114 125 123
3 114 118 125
3 118 115 125
3 115 126 125
3 115 119 126
3 119 116 126
3 116 127 126
3 116 120 127
3 120 117 127
3 117 124 127
3 117 59 124
3 59 131 124
3 124 132 145
3 124 131 132
3 131 60 132
3 145 134 122
3 145 132 134
3 132 133 134
3 132 60 133
3 60 99 133
3 122 137 150
3 134 137 122
3 134 136 137
3 133 136 134
3 133 135 136
3 99 135 133
3 99 74 135
3 150 137 109
