ply
format ascii 1.0
element vertex 151
property float x
property float y
property float z
element face 205
property list uchar int vertex_indices
end_header
383.878 357.878 0
396.439 383.074 0
409 408.27 0
397.023 356.357 0
406.129 377.321 0
415.236 398.285 0
411.306 344.694 0
417.539 364.581 0
423.771 384.467 0
427.164 330.836 0
431.731 350.784 0
436.297 370.733 0
446.993 319.48 0
449.477 338.759 0
451.962 358.038 0
470.593 315.713 0
469.183 329.715 0
467.774 343.716 0
479.245 320.087 0
483.652 331.652 0
476.311 338.697 0
198 317.06 0
210.559 306.232 0
223.118 295.404 0
187.616 300.872 0
199.183 290.811 0
210.75 280.75 0
176.569 285.14 0
187.711 275.104 0
198.854 265.069 0
166.754 268.513 0
176.88 258.89 0
187.006 249.268 0
156.959 251.872 0
166.596 242.277 0
176.233 232.682 0
147.79 234.917 0
156.159 225.91 0
164.529 216.902 0
145.084 227.13 0
147.477 218.523 0
155.093 214.907 0
230.47 287.81 0
247.209 281.699 0
263.948 275.588 0
221.884 263.438 0
238.19 257.675 0
254.496 251.913 0
213.126 239.264 0
229.605 233.472 0
246.084 227.68 0
205.98 214.44 0
220.965 209.285 0
235.951 204.13 0
197.751 189.812 0
212.273 184.955 0
226.795 180.098 0
189.803 165.111 0
204.242 160.447 0
218.68 155.783 0
189.551 153.62 0
199.176 145 0
211.272 146.201 0
275 269.786 0
293.076 269.417 0
311.153 269.048 0
274 239.449 0
292.5 239.766 0
311 240.082 0
273.221 209.181 0
292.11 210.267 0
311 211.352 0
275 178.864 0
292 180.768 0
309 182.672 0
275 148.726 0
291.5 151.344 0
308 153.962 0
274 118.388 0
290.5 121.725 0
307 125.062 0
280.89 105.426 0
294 103 0
305.149 112.783 0
323.7 271.3 0
341.85 283.664 0
360 296.029 0
332.514 247.656 0
348.376 258.316 0
364.237 268.976 0
339.698 223.363 0
355.934 232.878 0
372.169 242.393 0
348.533 199.612 0
363.116 207.496 0
377.7 215.38 0
355.184 175.186 0
369.298 181.778 0
383.412 188.37 0
361.873 150.72 0
375.601 156.038 0
389.329 161.356 0
369.192 141.395 0
381.191 140 0
389.464 149.076 0
285.000 600.000 0
296.052 691 0
349 665.639 0
238 575.582 0
292 576.066 0
346 576.549 0
238 522.017 0
291.5 523.15 0
345 524.283 0
237 477.105 0
293.5 478.783 0
350 480.46 0
223.893 433.529 0
279.121 437.86 0
288.934 438.629 0
298.064 439.345 0
352 443.574 0
216.542 400.626 0
266.817 402.843 0
284.956 403.643 0
302.109 404.399 0
354 406.688 0
211.994 370.548 0
255.39 370.323 0
281.152 370.19 0
306.083 370.06 0
356 369.801 0
206.652 342.797 0
244.842 340.304 0
277.512 338.17 0
310.019 336.048 0
358 332.915 0
219.544 323.619 0
228.684 294.316 0
255.398 312.448 0
270.556 277 0
293.822 306.305 0
317.2 274 0
336.305 309.748 0
363.669 461.331 0
377.693 443.298 0
392.966 425.034 0
364.729 329.702 0
368.146 398.816 0
382.293 390.945 0
369.939 363.84 0
3 0 3 1
3 1 3 4
3 1 4 2
3 2 4 5
3 3 6 4
3 4 6 7
3 4 7 5
3 5 7 8
3 6 9 7
3 7 9 10
3 7 10 8
3 8 10 11
3 9 12 10
3 10 12 13
3 10 13 11
3 11 13 14
3 12 15 13
3 13 15 16
3 13 16 14
3 14 16 17
3 15 18 16
3 18 19 16
3 19 20 16
3 16 20 17
3 21 24 22
3 22 24 25
3 22 25 23
3 23 25 26
3 24 27 25
3 25 27 28
3 25 28 26
3 26 28 29
3 27 30 28
3 28 30 31
3 28 31 29
3 29 31 32
3 30 33 31
3 31 33 34
3 31 34 32
3 32 34 35
3 33 36 34
3 34 36 37
3 34 37 35
3 35 37 38
3 36 39 37
3 39 40 37
3 40 41 37
3 37 41 38
3 42 45 43
3 43 45 46
3 43 46 44
3 44 46 47
3 45 48 46
3 46 48 49
3 46 49 47
3 47 49 50
3 48 51 49
3 49 51 52
3 49 52 50
3 50 52 53
3 51 54 52
3 52 54 55
3 52 55 53
3 53 55 56
3 54 57 55
3 55 57 58
3 55 58 56
3 56 58 59
3 57 60 58
3 60 61 58
3 61 62 58
3 58 62 59
3 63 66 64
3 64 66 67
3 64 67 65
3 65 67 68
3 66 69 67
3 67 69 70
3 67 70 68
3 68 70 71
3 69 72 70
3 70 72 73
3 70 73 71
3 71 73 74
3 72 75 73
3 73 75 76
3 73 76 74
3 74 76 77
3 75 78 76
3 76 78 79
3 76 79 77
3 77 79 80
3 78 81 79
3 81 82 79
3 82 83 79
3 79 83 80
3 84 87 85
3 85 87 88
3 85 88 86
3 86 88 89
3 87 90 88
3 88 90 91
3 88 91 89
3 89 91 92
3 90 93 91
3 91 93 94
3 91 94 92
3 92 94 95
3 93 96 94
3 94 96 97
3 94 97 95
3 95 97 98
3 96 99 97
3 97 99 100
3 97 100 98
3 98 100 101
3 99 102 100
3 102 103 100
3 103 104 100
3 100 104 101
3 105 108 106
3 106 108 109
3 106 109 107
3 107 109 110
3 108 111 109
3 109 111 112
3 109 112 110
3 110 112 113
3 111 114 112
3 112 114 115
3 112 115 113
3 113 115 116
3 114 117 115
3 115 117 118
3 118 119 115
3 119 120 115
3 115 120 116
3 120 121 116
3 117 122 118
3 118 122 123
3 118 123 119
3 119 123 124
3 119 124 120
3 120 124 125
3 120 125 121
3 121 125 126
3 122 127 123
3 123 127 128
3 123 128 124
3 124 128 129
3 124 129 125
3 125 129 130
3 125 130 126
3 126 130 131
3 127 132 128
3 128 132 133
3 128 133 129
3 129 133 134
3 129 134 130
3 130 134 135
3 130 135 131
3 131 135 136
3 132 21 137
3 132 137 133
3 133 137 138
3 138 137 23
3 22 23 137
3 22 137 21
3 138 42 139
3 133 138 139
3 133 139 134
3 134 139 140
3 140 139 44
3 43 44 139
3 43 139 42
3 140 63 141
3 134 140 141
3 134 141 135
3 135 141 142
3 142 141 65
3 64 65 141
3 64 141 63
3 142 84 143
3 135 142 143
3 135 143 136
3 136 143 86
3 85 86 143
3 85 143 84
3 116 121 144
3 121 126 144
3 144 126 148
3 144 148 145
3 145 148 149
3 145 149 146
3 146 149 1
3 146 1 2
3 131 148 126
3 131 150 148
3 150 149 148
3 150 0 149
3 0 1 149
3 136 150 131
3 136 147 150
3 147 0 150
3 136 86 147
