ply
format ascii 1.0
element vertex 381
property float x
property float y
property float z
element face 612
property list uchar int vertex_indices
end_header
263.649 567.524 0
257.92 579.448 0
252.19 591.372 0
246.461 603.295 0
240.732 615.219 0
255.233 562.762 0
249.904 572.967 0
244.576 583.172 0
239.247 593.376 0
233.919 603.581 0
247.862 556.501 0
242.784 565.276 0
237.707 574.052 0
232.63 582.827 0
227.552 591.602 0
242.594 548.323 0
237.283 556.126 0
231.972 563.929 0
226.661 571.732 0
221.35 579.535 0
238.107 539.68 0
232.156 546.745 0
226.206 553.81 0
220.256 560.875 0
214.305 567.94 0
232.643 531.681 0
226.099 537.979 0
219.554 544.277 0
213.009 550.575 0
206.465 556.874 0
226.134 524.456 0
219.291 529.775 0
212.449 535.093 0
205.606 540.411 0
198.763 545.729 0
220.459 516.542 0
213.342 520.903 0
206.225 525.265 0
199.109 529.627 0
191.992 533.988 0
213.647 509.59 0
206.157 513.016 0
198.668 516.441 0
191.178 519.867 0
183.689 523.293 0
206.138 503.405 0
198.039 506.104 0
189.939 508.802 0
181.84 511.501 0
173.741 514.2 0
197.589 498.778 0
192.1 499.511 0
186.612 500.243 0
181.124 500.975 0
175.635 501.707 0
192.898 497.474 0
188.055 497.127 0
181.466 498.217 0
477.59 552.547 0
471.633 542.656 0
465.677 532.764 0
459.72 522.872 0
453.764 512.981 0
486.258 541.038 0
479.798 531.687 0
473.338 522.336 0
466.878 512.984 0
460.418 503.633 0
495.723 530.171 0
489.75 522.62 0
483.778 515.07 0
477.805 507.519 0
471.832 499.969 0
504.937 519.094 0
499.26 512.772 0
493.583 506.451 0
487.905 500.129 0
482.228 493.807 0
514.978 508.785 0
509.248 503.267 0
503.517 497.748 0
497.786 492.229 0
492.055 486.711 0
524.235 497.765 0
518.677 493.275 0
513.12 488.785 0
507.562 484.295 0
502.005 479.806 0
534.245 487.4 0
528.509 483.558 0
522.774 479.715 0
517.038 475.872 0
511.302 472.029 0
544.863 477.693 0
538.91 474.476 0
532.956 471.259 0
527.003 468.042 0
521.05 464.824 0
555.407 467.912 0
549.104 465.154 0
542.8 462.396 0
536.497 459.637 0
530.194 456.879 0
565.473 457.603 0
559.06 455.587 0
552.647 453.57 0
546.234 451.553 0
539.821 449.536 0
571.096 445.157 0
565.656 444.375 0
560.216 443.594 0
554.777 442.812 0
549.337 442.03 0
567.193 439.422 0
560.298 437.371 0
554.403 438.833 0
444.17 507.764 0
434.576 502.547 0
424.982 497.33 0
415.388 492.113 0
455.437 496.451 0
447.576 492.525 0
439.715 488.598 0
431.854 484.672 0
423.992 480.746 0
462.314 480.592 0
454.02 476.893 0
445.726 473.194 0
437.432 469.495 0
429.138 465.796 0
469.026 464.649 0
460.222 461.121 0
451.419 457.592 0
442.615 454.064 0
433.811 450.536 0
474.601 448.273 0
465.932 445.152 0
457.263 442.031 0
448.594 438.91 0
439.924 435.789 0
479.766 431.762 0
471.669 429.232 0
463.572 426.701 0
455.476 424.171 0
447.379 421.641 0
485.303 415.384 0
477.564 413.351 0
469.824 411.318 0
462.085 409.285 0
454.345 407.253 0
491.958 399.415 0
484.007 397.65 0
476.056 395.885 0
468.105 394.121 0
460.154 392.356 0
499.293 383.745 0
491.177 382.266 0
483.06 380.787 0
474.944 379.308 0
466.828 377.829 0
506.822 368.176 0
498.598 367.005 0
490.374 365.835 0
482.15 364.664 0
473.926 363.494 0
508.961 351.877 0
502.184 351.325 0
495.406 350.773 0
488.628 350.221 0
481.85 349.668 0
503.521 345.265 0
495.511 342.391 0
487.811 344.552 0
401.334 492.488 0
387.28 492.862 0
373.226 493.237 0
359.172 493.612 0
411.072 474.503 0
400.441 475.587 0
389.81 476.672 0
379.179 477.756 0
368.548 478.841 0
409.748 456.479 0
400.536 457.441 0
391.324 458.402 0
382.112 459.364 0
372.899 460.325 0
412.517 438.196 0
402.888 438.962 0
393.26 439.728 0
383.631 440.494 0
374.003 441.26 0
415.403 419.931 0
405.347 420.498 0
395.292 421.064 0
385.236 421.631 0
375.18 422.197 0
417.512 401.569 0
407.436 401.979 0
397.36 402.389 0
387.284 402.799 0
377.208 403.21 0
418.145 383.093 0
408.889 383.448 0
399.632 383.803 0
390.376 384.158 0
381.119 384.513 0
420.604 364.775 0
411.689 365.031 0
402.775 365.286 0
393.86 365.542 0
384.945 365.798 0
423.901 346.577 0
415.044 346.69 0
406.188 346.802 0
397.332 346.914 0
388.475 347.027 0
428.148 328.579 0
419.182 328.512 0
410.216 328.445 0
401.25 328.377 0
392.284 328.31 0
429.255 310.626 0
421.571 310.55 0
413.887 310.475 0
406.203 310.399 0
398.519 310.323 0
423.194 303.813 0
414.392 301.325 0
405.238 303.735 0
347.029 493.575 0
334.886 493.538 0
322.743 493.501 0
310.6 493.465 0
352.768 478.424 0
342.294 477.997 0
331.821 477.57 0
321.347 477.143 0
310.874 476.716 0
349.077 461.648 0
339.017 461.255 0
328.957 460.861 0
318.897 460.467 0
308.837 460.074 0
346.856 444.594 0
336.664 444.323 0
326.472 444.053 0
316.281 443.782 0
306.089 443.512 0
344.435 427.564 0
334.233 427.399 0
324.031 427.234 0
313.83 427.069 0
303.628 426.904 0
342.63 410.46 0
332.588 410.386 0
322.545 410.312 0
312.503 410.238 0
302.46 410.164 0
339.973 393.464 0
330.48 393.446 0
320.986 393.427 0
311.493 393.408 0
302 393.39 0
338.215 376.354 0
329.133 376.416 0
320.05 376.478 0
310.967 376.54 0
301.884 376.602 0
337.99 359.154 0
328.742 359.327 0
319.495 359.5 0
310.248 359.673 0
301 359.846 0
337.149 341.975 0
328.36 342.257 0
319.57 342.538 0
310.781 342.82 0
301.991 343.102 0
334.406 325.173 0
327.499 325.666 0
320.591 326.158 0
313.684 326.651 0
306.777 327.144 0
327.829 319.544 0
319.707 317.756 0
311.893 320.735 0
435.936 544.73 0
414.975 525.367 0
381.949 520.206 0
347.899 520.504 0
426.404 684.034 0
398.05 681.215 0
369.696 678.396 0
341.343 675.577 0
312.989 672.758 0
426.748 699.075 0
399.358 696.595 0
371.968 694.115 0
344.577 691.635 0
317.187 689.155 0
425.938 714.51 0
399.177 712.348 0
372.417 710.186 0
345.656 708.024 0
318.895 705.862 0
425.109 729.552 0
398.844 727.76 0
372.58 725.968 0
346.315 724.176 0
320.05 722.384 0
423.028 744.601 0
397.585 750 0
371.433 748.506 0
346.546 746.987 0
321.256 739.111 0
275.984 593.833 0
270.885 604.917 0
265.787 616.001 0
260.688 627.085 0
288.319 620.141 0
283.62 630.832 0
278.92 641.522 0
300.654 646.45 0
296.41 656.789 0
312.392 627.935 0
302.072 605.16 0
291.752 582.386 0
281.432 559.611 0
311.795 583.111 0
307.579 561.031 0
303.363 538.95 0
311.197 538.288 0
311.326 513.358 0
312.691 650.347 0
312.093 605.523 0
311.496 560.7 0
310.899 515.876 0
430.729 666.758 0
437.75 650.421 0
448.035 635.872 0
456.603 620.239 0
462.868 603.565 0
467.598 586.378 0
470.725 568.826 0
408.432 665.159 0
418.814 649.104 0
429.196 633.048 0
439.579 616.993 0
449.961 600.937 0
460.343 584.882 0
379.159 659.301 0
388.622 640.206 0
398.085 621.111 0
407.548 602.016 0
417.01 582.921 0
426.473 563.826 0
376.165 656.535 0
382.633 634.673 0
389.101 612.812 0
395.57 590.951 0
402.038 569.09 0
408.507 547.229 0
371.447 655.797 0
373.197 633.199 0
374.947 610.6 0
376.698 588.002 0
378.448 565.403 0
380.198 542.805 0
366.582 655.84 0
363.469 633.284 0
360.355 610.728 0
357.241 588.172 0
354.127 565.616 0
351.013 543.06 0
336.994 652.763 0
332.644 629.948 0
328.295 607.134 0
323.946 584.32 0
319.597 561.505 0
315.248 538.691 0
3 0 1 5
3 1 6 5
3 1 2 6
3 2 7 6
3 2 3 7
3 3 8 7
3 3 4 8
3 4 9 8
3 5 6 10
3 6 11 10
3 6 7 11
3 7 12 11
3 7 8 12
3 8 13 12
3 8 9 13
3 9 14 13
3 10 11 15
3 11 16 15
3 11 12 16
3 12 17 16
3 12 13 17
3 13 18 17
3 13 14 18
3 14 19 18
3 15 16 20
3 16 21 20
3 16 17 21
3 17 22 21
3 17 18 22
3 18 23 22
3 18 19 23
3 19 24 23
3 20 21 25
3 21 26 25
3 21 22 26
3 22 27 26
3 22 23 27
3 23 28 27
3 23 24 28
3 24 29 28
3 25 26 30
3 26 31 30
3 26 27 31
3 27 32 31
3 27 28 32
3 28 33 32
3 28 29 33
3 29 34 33
3 30 31 35
3 31 36 35
3 31 32 36
3 32 37 36
3 32 33 37
3 33 38 37
3 33 34 38
3 34 39 38
3 35 36 40
3 36 41 40
3 36 37 41
3 37 42 41
3 37 38 42
3 38 43 42
3 38 39 43
3 39 44 43
3 40 41 45
3 41 46 45
3 41 42 46
3 42 47 46
3 42 43 47
3 43 48 47
3 43 44 48
3 44 49 48
3 45 46 50
3 46 51 50
3 46 47 51
3 47 52 51
3 47 48 52
3 48 53 52
3 48 49 53
3 49 54 53
3 50 51 55
3 51 52 55
3 52 56 55
3 52 57 56
3 52 53 57
3 53 54 57
3 58 59 63
3 59 64 63
3 59 60 64
3 60 65 64
3 60 61 65
3 61 66 65
3 61 62 66
3 62 67 66
3 63 64 68
3 64 69 68
3 64 65 69
3 65 70 69
3 65 66 70
3 66 71 70
3 66 67 71
3 67 72 71
3 68 69 73
3 69 74 73
3 69 70 74
3 70 75 74
3 70 71 75
3 71 76 75
3 71 72 76
3 72 77 76
3 73 74 78
3 74 79 78
3 74 75 79
3 75 80 79
3 75 76 80
3 76 81 80
3 76 77 81
3 77 82 81
3 78 79 83
3 79 84 83
3 79 80 84
3 80 85 84
3 80 81 85
3 81 86 85
3 81 82 86
3 82 87 86
3 83 84 88
3 84 89 88
3 84 85 89
3 85 90 89
3 85 86 90
3 86 91 90
3 86 87 91
3 87 92 91
3 88 89 93
3 89 94 93
3 89 90 94
3 90 95 94
3 90 91 95
3 91 96 95
3 91 92 96
3 92 97 96
3 93 94 98
3 94 99 98
3 94 95 99
3 95 100 99
3 95 96 100
3 96 101 100
3 96 97 101
3 97 102 101
3 98 99 103
3 99 104 103
3 99 100 104
3 100 105 104
3 100 101 105
3 101 106 105
3 101 102 106
3 102 107 106
3 103 104 108
3 104 109 108
3 104 105 109
3 105 110 109
3 105 106 110
3 106 111 110
3 106 107 111
3 107 112 111
3 108 109 113
3 109 110 113
3 110 114 113
3 110 115 114
3 110 111 115
3 111 112 115
3 62 116 120
3 116 121 120
3 116 117 121
3 117 122 121
3 117 118 122
3 118 123 122
3 118 119 123
3 119 124 123
3 120 121 125
3 121 126 125
3 121 122 126
3 122 127 126
3 122 123 127
3 123 128 127
3 123 124 128
3 124 129 128
3 125 126 130
3 126 131 130
3 126 127 131
3 127 132 131
3 127 128 132
3 128 133 132
3 128 129 133
3 129 134 133
3 130 131 135
3 131 136 135
3 131 132 136
3 132 137 136
3 132 133 137
3 133 138 137
3 133 134 138
3 134 139 138
3 135 136 140
3 136 141 140
3 136 137 141
3 137 142 141
3 137 138 142
3 138 143 142
3 138 139 143
3 139 144 143
3 140 141 145
3 141 146 145
3 141 142 146
3 142 147 146
3 142 143 147
3 143 148 147
3 143 144 148
3 144 149 148
3 145 146 150
3 146 151 150
3 146 147 151
3 147 152 151
3 147 148 152
3 148 153 152
3 148 149 153
3 149 154 153
3 150 151 155
3 151 156 155
3 151 152 156
3 152 157 156
3 152 153 157
3 153 158 157
3 153 154 158
3 154 159 158
3 155 156 160
3 156 161 160
3 156 157 161
3 157 162 161
3 157 158 162
3 158 163 162
3 158 159 163
3 159 164 163
3 160 161 165
3 161 166 165
3 161 162 166
3 162 167 166
3 162 163 167
3 163 168 167
3 163 164 168
3 164 169 168
3 165 166 170
3 166 167 170
3 167 171 170
3 167 172 171
3 167 168 172
3 168 169 172
3 119 173 177
3 173 178 177
3 173 174 178
3 174 179 178
3 174 175 179
3 175 180 179
3 175 176 180
3 176 181 180
3 177 178 182
3 178 183 182
3 178 179 183
3 179 184 183
3 179 180 184
3 180 185 184
3 180 181 185
3 181 186 185
3 182 183 187
3 183 188 187
3 183 184 188
3 184 189 188
3 184 185 189
3 185 190 189
3 185 186 190
3 186 191 190
3 187 188 192
3 188 193 192
3 188 189 193
3 189 194 193
3 189 190 194
3 190 195 194
3 190 191 195
3 191 196 195
3 192 193 197
3 193 198 197
3 193 194 198
3 194 199 198
3 194 195 199
3 195 200 199
3 195 196 200
3 196 201 200
3 197 198 202
3 198 203 202
3 198 199 203
3 199 204 203
3 199 200 204
3 200 205 204
3 200 201 205
3 201 206 205
3 202 203 207
3 203 208 207
3 203 204 208
3 204 209 208
3 204 205 209
3 205 210 209
3 205 206 210
3 206 211 210
3 207 208 212
3 208 213 212
3 208 209 213
3 209 214 213
3 209 210 214
3 210 215 214
3 210 211 215
3 211 216 215
3 212 213 217
3 213 218 217
3 213 214 218
3 214 219 218
3 214 215 219
3 215 220 219
3 215 216 220
3 216 221 220
3 217 218 222
3 218 223 222
3 218 219 223
3 219 224 223
3 219 220 224
3 220 225 224
3 220 221 225
3 221 226 225
3 222 223 227
3 223 224 227
3 224 228 227
3 224 229 228
3 224 225 229
3 225 226 229
3 176 230 234
3 230 235 234
3 230 231 235
3 231 236 235
3 231 232 236
3 232 237 236
3 232 233 237
3 233 238 237
3 234 235 239
3 235 240 239
3 235 236 240
3 236 241 240
3 236 237 241
3 237 242 241
3 237 238 242
3 238 243 242
3 239 240 244
3 240 245 244
3 240 241 245
3 241 246 245
3 241 242 246
3 242 247 246
3 242 243 247
3 243 248 247
3 244 245 249
3 245 250 249
3 245 246 250
3 246 251 250
3 246 247 251
3 247 252 251
3 247 248 252
3 248 253 252
3 249 250 254
3 250 255 254
3 250 251 255
3 251 256 255
3 251 252 256
3 252 257 256
3 252 253 257
3 253 258 257
3 254 255 259
3 255 260 259
3 255 256 260
3 256 261 260
3 256 257 261
3 257 262 261
3 257 258 262
3 258 263 262
3 259 260 264
3 260 265 264
3 260 261 265
3 261 266 265
3 261 262 266
3 262 267 266
3 262 263 267
3 263 268 267
3 264 265 269
3 265 270 269
3 265 266 270
3 266 271 270
3 266 267 271
3 267 272 271
3 267 268 272
3 268 273 272
3 269 270 274
3 270 275 274
3 270 271 275
3 271 276 275
3 271 272 276
3 272 277 276
3 272 273 277
3 273 278 277
3 274 275 279
3 275 280 279
3 275 276 280
3 276 281 280
3 276 277 281
3 277 282 281
3 277 278 282
3 278 283 282
3 279 280 284
3 280 281 284
3 281 285 284
3 281 286 285
3 281 282 286
3 282 283 286
3 287 59 58
3 287 60 59
3 287 61 60
3 287 62 61
3 288 116 62
3 288 117 116
3 288 118 117
3 288 119 118
3 289 173 119
3 289 174 173
3 289 175 174
3 289 176 175
3 290 230 176
3 290 231 230
3 290 232 231
3 290 233 232
3 291 296 292
3 292 296 297
3 292 297 293
3 293 297 298
3 293 298 294
3 294 298 299
3 294 299 295
3 295 299 300
3 296 301 297
3 297 301 302
3 297 302 298
3 298 302 303
3 298 303 299
3 299 303 304
3 299 304 300
3 300 304 305
3 301 306 302
3 302 306 307
3 302 307 303
3 303 307 308
3 303 308 304
3 304 308 309
3 304 309 305
3 305 309 310
3 306 311 307
3 307 311 312
3 307 312 308
3 308 312 313
3 308 313 309
3 309 313 314
3 309 314 310
3 310 314 315
3 0 316 1
3 1 316 317
3 1 317 2
3 2 317 318
3 2 318 3
3 3 318 319
3 3 319 4
3 316 320 317
3 317 321 318
3 317 320 321
3 318 322 319
3 318 321 322
3 320 323 321
3 321 324 322
3 321 323 324
3 323 295 324
3 295 323 334
3 323 325 334
3 323 320 325
3 320 326 325
3 320 316 326
3 316 327 326
3 316 0 327
3 0 328 327
3 325 326 335
3 326 329 335
3 326 327 329
3 327 330 329
3 327 328 330
3 328 331 330
3 329 330 336
3 330 332 336
3 330 331 332
3 331 333 332
3 332 333 337
3 333 233 337
3 344 287 58
3 287 288 62
3 288 289 119
3 289 290 176
3 290 337 233
3 338 345 339
3 339 345 346
3 339 346 340
3 340 346 347
3 340 347 341
3 341 347 348
3 341 348 342
3 342 348 349
3 342 349 343
3 343 349 350
3 345 293 351
3 345 351 346
3 346 351 352
3 346 352 347
3 347 352 353
3 347 353 348
3 348 353 354
3 348 354 349
3 349 354 355
3 349 355 350
3 350 355 356
3 350 356 344
3 344 356 287
3 351 293 357
3 351 357 352
3 352 357 358
3 352 358 353
3 353 358 359
3 353 359 354
3 354 359 360
3 354 360 355
3 355 360 361
3 355 361 356
3 356 361 362
3 356 362 287
3 287 362 288
3 357 293 363
3 357 363 358
3 358 363 364
3 358 364 359
3 359 364 365
3 359 365 360
3 360 365 366
3 360 366 361
3 361 366 367
3 361 367 362
3 362 367 368
3 362 368 288
3 288 368 289
3 363 293 369
3 363 369 364
3 364 369 370
3 364 370 365
3 365 370 371
3 365 371 366
3 366 371 372
3 366 372 367
3 367 372 373
3 367 373 368
3 368 373 374
3 368 374 289
3 289 374 290
3 369 375 370
3 370 375 376
3 370 376 371
3 371 376 377
3 371 377 372
3 372 377 378
3 372 378 373
3 373 378 379
3 373 379 374
3 374 379 380
3 374 380 290
3 290 380 337
3 375 334 376
3 376 334 325
3 376 325 377
3 377 325 335
3 377 335 378
3 378 335 329
3 378 329 379
3 379 329 336
3 379 336 380
3 380 336 332
3 380 332 337
3 344 343 350
3 291 292 338
3 292 345 338
3 292 293 345
3 293 294 369
3 294 375 369
3 294 295 375
3 295 334 375
